<svg width="605" height="660" viewBox="0 0 605 660" fill="none" xmlns="http://www.w3.org/2000/svg">
<path d="M605 514.598L577.172 644.828H501.279C465.019 644.828 433.818 637.663 407.677 623.333C382.379 609.004 363.828 589.617 352.022 565.172C314.919 598.046 272.756 622.069 225.533 637.241C179.154 652.414 126.028 660 66.1567 660C-17.326 660 -83.1003 644.828 -131.166 614.483C-178.389 584.138 -202 542.835 -202 490.575C-202 475.402 -200.313 461.073 -196.94 447.586C-184.292 395.326 -156.042 356.973 -112.193 332.529C-67.5 308.084 -11.4232 292.49 56.0376 285.747L386.174 252.874C388.704 216.628 374.368 188.812 343.168 169.425C312.81 149.195 267.274 139.08 206.56 139.08C148.375 139.08 101.152 148.353 64.8919 166.897C28.6317 185.441 7.55016 211.149 1.64734 244.023L0.382446 247.816H-153.934L-152.669 244.023C-140.02 169.004 -100.809 109.579 -35.0345 65.7471C31.5831 21.9157 115.487 0 216.679 0C317.027 0 395.872 21.0728 453.213 63.2184C510.555 104.521 539.226 160.153 539.226 230.115C539.226 246.13 537.118 264.674 532.901 285.747L497.484 453.908C495.798 462.337 494.955 468.238 494.955 471.609C494.955 485.096 499.593 495.632 508.868 503.218C518.988 510.805 533.323 514.598 551.875 514.598H605ZM68.6866 529.77C132.774 529.77 189.694 520.077 239.447 500.69C289.199 480.46 327.567 452.222 354.552 415.977L363.406 374.253L56.0376 405.862C21.464 410.077 -4.67711 417.241 -22.3856 427.356C-39.2508 436.628 -49.3699 450.536 -52.7429 469.08C-58.6458 509.54 -18.1693 529.77 68.6866 529.77Z" fill="black"/>
<path d="M605 514.598L577.172 644.828H501.279C465.019 644.828 433.818 637.663 407.677 623.333C382.379 609.004 363.828 589.617 352.022 565.172C314.919 598.046 272.756 622.069 225.533 637.241C179.154 652.414 126.028 660 66.1567 660C-17.326 660 -83.1003 644.828 -131.166 614.483C-178.389 584.138 -202 542.835 -202 490.575C-202 475.402 -200.313 461.073 -196.94 447.586C-184.292 395.326 -156.042 356.973 -112.193 332.529C-67.5 308.084 -11.4232 292.49 56.0376 285.747L386.174 252.874C388.704 216.628 374.368 188.812 343.168 169.425C312.81 149.195 267.274 139.08 206.56 139.08C148.375 139.08 101.152 148.353 64.8919 166.897C28.6317 185.441 7.55016 211.149 1.64734 244.023L0.382446 247.816H-153.934L-152.669 244.023C-140.02 169.004 -100.809 109.579 -35.0345 65.7471C31.5831 21.9157 115.487 0 216.679 0C317.027 0 395.872 21.0728 453.213 63.2184C510.555 104.521 539.226 160.153 539.226 230.115C539.226 246.13 537.118 264.674 532.901 285.747L497.484 453.908C495.798 462.337 494.955 468.238 494.955 471.609C494.955 485.096 499.593 495.632 508.868 503.218C518.988 510.805 533.323 514.598 551.875 514.598H605ZM68.6866 529.77C132.774 529.77 189.694 520.077 239.447 500.69C289.199 480.46 327.567 452.222 354.552 415.977L363.406 374.253L56.0376 405.862C21.464 410.077 -4.67711 417.241 -22.3856 427.356C-39.2508 436.628 -49.3699 450.536 -52.7429 469.08C-58.6458 509.54 -18.1693 529.77 68.6866 529.77Z" stroke="black"/>
</svg>
