<svg width="1264" height="216" viewBox="0 0 1264 216" fill="none" xmlns="http://www.w3.org/2000/svg">
<rect x="-120.908" width="1329.4" height="89" transform="rotate(3.92483 -120.908 0)" fill="white"/>
<rect x="-84.7072" y="30" width="1328.12" height="89" transform="rotate(1.47622 -84.7072 30)" fill="black"/>
<rect x="-84.7072" y="30" width="1328.12" height="89" transform="rotate(1.47622 -84.7072 30)" fill="black"/>
<rect x="-84.7072" y="30" width="1328.12" height="89" transform="rotate(1.47622 -84.7072 30)" fill="black"/>
<rect x="-84.7072" y="30" width="1328.12" height="89" transform="rotate(1.47622 -84.7072 30)" fill="black"/>
<rect x="-84.7072" y="30" width="1328.12" height="89" transform="rotate(1.47622 -84.7072 30)" fill="black"/>
<rect x="-67.3403" y="126.833" width="1328.12" height="89" transform="rotate(-5.12574 -67.3403 126.833)" fill="#FF79B9"/>
<rect x="1145.85" y="17.833" width="110.061" height="89" transform="rotate(-5.12574 1145.85 17.833)" fill="#EFEFEF"/>
<path d="M18.6801 135.624L18.3275 137.082L18.3364 137.084L18.3453 137.086L18.6801 135.624ZM28.2383 140.156L27.2347 141.271L27.2481 141.283L27.2618 141.295L28.2383 140.156ZM31.5803 152.469L30.1566 151.997L30.1424 152.04L30.1308 152.083L31.5803 152.469ZM31.3393 153.374L32.7738 153.812L32.7818 153.786L32.7888 153.76L31.3393 153.374ZM22.8243 162.402L22.2212 161.029L19.8234 162.082L21.9448 163.617L22.8243 162.402ZM25.8583 173.056L24.427 172.607L24.4243 172.616L24.4218 172.624L25.8583 173.056ZM25.6103 173.881L24.1738 173.449L24.1711 173.458L24.1685 173.467L25.6103 173.881ZM16.4753 184.972L17.2401 186.263L16.4753 184.972ZM-16.1415 189.394L-16.5228 190.845L-16.5142 190.847L-16.5055 190.849L-16.1415 189.394ZM-25.9015 184.397L-26.9403 185.48L-26.9345 185.485L-26.9287 185.491L-25.9015 184.397ZM-29.0643 169.579L-27.6388 170.046L-29.0643 169.579ZM-28.8748 169L-29.0074 167.506L-29.9926 167.593L-30.3003 168.533L-28.8748 169ZM-15.3281 167.797L-13.9025 168.264L-13.1948 166.102L-15.4607 166.303L-15.3281 167.797ZM-15.5176 168.376L-16.9432 167.91L-16.9474 167.923L-16.9513 167.935L-15.5176 168.376ZM-12.0018 177.22L-11.4399 175.829L-11.4399 175.829L-12.0018 177.22ZM11.9824 172.36L10.5459 171.928L10.54 171.948L10.5346 171.968L11.9824 172.36ZM12.2304 171.535L10.8347 170.985L10.8119 171.043L10.7939 171.103L12.2304 171.535ZM-8.91255 168.593L-10.3279 168.096L-11.0988 170.293L-8.77991 170.087L-8.91255 168.593ZM-5.13072 157.816L-5.26336 156.322L-6.22606 156.408L-6.54609 157.32L-5.13072 157.816ZM14.3218 155.286L14.8598 156.687L14.8598 156.687L14.3218 155.286ZM17.6742 152.338L19.0973 152.812L19.1043 152.791L19.1107 152.77L17.6742 152.338ZM17.9222 151.513L19.3587 151.945L19.3634 151.929L19.3678 151.914L17.9222 151.513ZM14.5706 147.233L14.1388 148.669L14.1544 148.674L14.1701 148.678L14.5706 147.233ZM-11.6933 158.078L-10.2677 158.545L-10.2636 158.532L-11.6933 158.078ZM-11.8829 158.657L-11.7502 160.151L-10.765 160.064L-10.4573 159.124L-11.8829 158.657ZM-26.3858 159.944L-27.8114 159.478L-28.5191 161.64L-26.2532 161.439L-26.3858 159.944ZM-26.1963 159.365L-27.619 158.89L-27.6218 158.899L-26.1963 159.365ZM-14.817 141.891L-13.8915 143.071L-13.8832 143.065L-14.817 141.891ZM5.08915 136.329C10.0623 135.887 14.4687 136.149 18.3275 137.082L19.0326 134.166C14.7933 133.141 10.0506 132.876 4.82386 133.34L5.08915 136.329ZM18.3453 137.086C22.2189 137.973 25.1484 139.393 27.2347 141.271L29.242 139.042C26.6727 136.729 23.2301 135.127 19.0149 134.162L18.3453 137.086ZM27.2618 141.295C29.3692 143.102 30.4736 145.206 30.6905 147.649L33.6788 147.384C33.3863 144.089 31.8599 141.286 29.2148 139.018L27.2618 141.295ZM30.6905 147.649C30.8176 149.08 30.6447 150.526 30.1566 151.997L33.0039 152.942C33.6141 151.103 33.8441 149.246 33.6788 147.384L30.6905 147.649ZM30.1308 152.083L29.8898 152.988L32.7888 153.76L33.0298 152.855L30.1308 152.083ZM29.9048 152.936C28.8061 156.531 26.314 159.232 22.2212 161.029L23.4274 163.776C28.1985 161.681 31.3831 158.363 32.7738 153.812L29.9048 152.936ZM21.9448 163.617C23.7867 164.951 24.7454 166.627 24.9313 168.721L27.9196 168.456C27.6527 165.449 26.2107 163.002 23.7039 161.187L21.9448 163.617ZM24.9313 168.721C25.0333 169.87 24.8807 171.16 24.427 172.607L27.2896 173.505C27.8373 171.758 28.0628 170.069 27.9196 168.456L24.9313 168.721ZM24.4218 172.624L24.1738 173.449L27.0468 174.313L27.2948 173.488L24.4218 172.624ZM24.1685 173.467C22.9834 177.597 20.2231 181.007 15.7105 183.682L17.2401 186.263C22.2904 183.269 25.6201 179.285 27.0521 174.295L24.1685 173.467ZM15.7105 183.682C11.1786 186.368 5.25193 188.077 -2.14503 188.734L-1.87974 191.722C5.81064 191.039 12.2091 189.244 17.2401 186.263L15.7105 183.682ZM-2.14503 188.734C-7.33224 189.194 -11.8686 188.917 -15.7774 187.939L-16.5055 190.849C-12.2004 191.926 -7.31741 192.205 -1.87974 191.722L-2.14503 188.734ZM-15.7602 187.943C-19.6991 186.908 -22.7072 185.34 -24.8744 183.304L-26.9287 185.491C-24.3058 187.955 -20.8072 189.719 -16.5228 190.845L-15.7602 187.943ZM-24.8628 183.315C-27.0123 181.252 -28.182 178.839 -28.4315 176.028L-31.4198 176.294C-31.1034 179.858 -29.5903 182.936 -26.9403 185.48L-24.8628 183.315ZM-28.4315 176.028C-28.5947 174.19 -28.3444 172.201 -27.6388 170.046L-30.4899 169.112C-31.3005 171.589 -31.6245 173.988 -31.4198 176.294L-28.4315 176.028ZM-27.6388 170.046L-27.4492 169.467L-30.3003 168.533L-30.4899 169.112L-27.6388 170.046ZM-28.7421 170.494L-15.1954 169.291L-15.4607 166.303L-29.0074 167.506L-28.7421 170.494ZM-16.7536 167.331L-16.9432 167.91L-14.092 168.843L-13.9025 168.264L-16.7536 167.331ZM-16.9513 167.935C-17.4415 169.53 -17.6732 171.009 -17.5558 172.332L-14.5675 172.067C-14.6387 171.265 -14.5077 170.196 -14.0839 168.817L-16.9513 167.935ZM-17.5558 172.332C-17.4282 173.77 -16.9383 175.062 -16.0574 176.151C-15.185 177.23 -13.9908 178.034 -12.5637 178.611L-11.4399 175.829C-12.5119 175.396 -13.2438 174.859 -13.7247 174.265C-14.1971 173.68 -14.4876 172.967 -14.5675 172.067L-17.5558 172.332ZM-12.5637 178.611C-9.73911 179.752 -5.89824 180.031 -1.18779 179.613L-1.45308 176.625C-5.98628 177.027 -9.2663 176.707 -11.4399 175.829L-12.5637 178.611ZM-1.18779 179.613C2.89131 179.251 6.18766 178.574 8.61754 177.522C11.042 176.472 12.8381 174.939 13.4303 172.752L10.5346 171.968C10.28 172.908 9.4355 173.899 7.4257 174.769C5.42129 175.636 2.48961 176.275 -1.45308 176.625L-1.18779 179.613ZM13.4189 172.792L13.6669 171.967L10.7939 171.103L10.5459 171.928L13.4189 172.792ZM13.6261 172.085C13.8958 171.4 13.9813 170.675 13.916 169.94L10.9277 170.205C10.9567 170.532 10.9145 170.783 10.8347 170.985L13.6261 172.085ZM13.916 169.94C13.8278 168.947 13.3707 168.099 12.6126 167.465C11.896 166.865 10.9697 166.502 9.96453 166.283L9.32643 169.214C10.0684 169.376 10.4784 169.59 10.6872 169.765C10.8546 169.905 10.9121 170.029 10.9277 170.205L13.916 169.94ZM9.96453 166.283C7.98291 165.852 5.08584 165.844 1.39375 166.172L1.65904 169.161C5.29812 168.837 7.81376 168.885 9.32643 169.214L9.96453 166.283ZM1.39375 166.172L-9.0452 167.099L-8.77991 170.087L1.65904 169.161L1.39375 166.172ZM-7.49718 169.09L-3.71534 158.313L-6.54609 157.32L-10.3279 168.096L-7.49718 169.09ZM-4.99807 159.311L5.83931 158.348L5.57402 155.36L-5.26336 156.322L-4.99807 159.311ZM5.83931 158.348C9.79719 157.997 12.8429 157.462 14.8598 156.687L13.7837 153.886C12.1762 154.504 9.47855 155.014 5.57402 155.36L5.83931 158.348ZM14.8598 156.687C16.8953 155.904 18.4778 154.672 19.0973 152.812L16.2511 151.864C16.0251 152.543 15.3726 153.276 13.7837 153.886L14.8598 156.687ZM19.1107 152.77L19.3587 151.945L16.4857 151.081L16.2377 151.907L19.1107 152.77ZM19.3678 151.914C19.5272 151.338 19.6013 150.75 19.5493 150.164L16.561 150.429C16.5751 150.587 16.5605 150.81 16.4766 151.113L19.3678 151.914ZM19.5493 150.164C19.3371 147.775 17.3667 146.451 14.971 145.787L14.1701 148.678C16.1659 149.231 16.5185 149.95 16.561 150.429L19.5493 150.164ZM15.0023 145.796C12.5404 145.056 9.36403 144.904 5.5592 145.242L5.82449 148.23C9.45708 147.908 12.1998 148.087 14.1388 148.669L15.0023 145.796ZM5.5592 145.242C0.672782 145.676 -3.40032 146.879 -6.56614 148.945C-9.75952 151.028 -11.9535 153.94 -13.123 157.624L-10.2636 158.532C-9.29917 155.494 -7.52864 153.155 -4.92697 151.457C-2.29774 149.742 1.25476 148.636 5.82449 148.23L5.5592 145.242ZM-13.1189 157.611L-13.3084 158.19L-10.4573 159.124L-10.2677 158.544L-13.1189 157.611ZM-12.0155 157.163L-26.5185 158.45L-26.2532 161.439L-11.7502 160.151L-12.0155 157.163ZM-24.9602 160.411L-24.7707 159.832L-27.6218 158.899L-27.8114 159.478L-24.9602 160.411ZM-24.7735 159.841C-22.2604 152.317 -18.6092 146.77 -13.8915 143.071L-15.7425 140.71C-21.0365 144.861 -24.9715 150.964 -27.619 158.89L-24.7735 159.841ZM-13.8832 143.065C-9.16939 139.315 -2.88216 137.036 5.08915 136.329L4.82386 133.34C-3.56714 134.085 -10.4622 136.51 -15.7507 140.717L-13.8832 143.065ZM103.963 130.061L103.193 131.348L103.205 131.355L103.963 130.061ZM108.128 143.505L109.565 143.937L109.567 143.93L108.128 143.505ZM107.88 144.33L106.444 143.898L106.441 143.906L106.439 143.913L107.88 144.33ZM99.0072 154.756L98.337 153.414L96.2217 154.47L98.0787 155.934L99.0072 154.756ZM101.721 166.321L100.299 165.844L100.291 165.866L100.284 165.889L101.721 166.321ZM101.473 167.146L102.904 167.596L102.906 167.587L102.909 167.578L101.473 167.146ZM93.7153 177.473L92.9148 176.204L92.9078 176.208L93.7153 177.473ZM78.2133 181.981L78.3518 183.475L78.3579 183.474L78.2133 181.981ZM58.0597 183.851L58.1923 185.345L58.1982 185.344L58.0597 183.851ZM43.3973 185.152L41.9784 184.666L41.2294 186.851L43.53 186.646L43.3973 185.152ZM62.025 130.812L61.8924 129.318L60.922 129.404L60.6061 130.326L62.025 130.812ZM72.5476 141.684L72.415 140.19L71.4501 140.276L71.1312 141.19L72.5476 141.684ZM69.283 151.05L67.8666 150.556L67.1021 152.749L69.4157 152.544L69.283 151.05ZM91.4236 148.04L90.5954 146.789L90.5841 146.797L90.573 146.804L91.4236 148.04ZM93.7915 144.858L95.2371 145.258L95.2391 145.251L95.241 145.244L93.7915 144.858ZM94.0325 143.953L92.6132 143.468L92.5964 143.517L92.583 143.567L94.0325 143.953ZM92.9314 140.597L92.19 141.901L92.2464 141.933L92.3053 141.96L92.9314 140.597ZM88.369 164.294L89.8055 164.725L89.8084 164.716L89.8111 164.706L88.369 164.294ZM65.595 161.979L65.4624 160.484L64.4989 160.57L64.1793 161.483L65.595 161.979ZM62.1993 171.677L60.7836 171.181L60.0149 173.377L62.332 173.171L62.1993 171.677ZM85.6946 168.547L86.5453 169.782L86.5537 169.777L86.562 169.771L85.6946 168.547ZM88.121 165.119L86.6845 164.687L86.6816 164.697L86.6788 164.706L88.121 165.119ZM92.5182 129.611C97.1719 129.198 100.677 129.843 103.193 131.348L104.733 128.773C101.481 126.828 97.2679 126.177 92.253 126.623L92.5182 129.611ZM103.205 131.355C105.721 132.829 107.068 134.956 107.327 137.874L110.315 137.608C109.971 133.727 108.078 130.733 104.721 128.766L103.205 131.355ZM107.327 137.874C107.462 139.4 107.266 141.13 106.69 143.08L109.567 143.93C110.225 141.701 110.491 139.588 110.315 137.608L107.327 137.874ZM106.692 143.073L106.444 143.898L109.317 144.762L109.565 143.937L106.692 143.073ZM106.439 143.913C105.21 148.16 102.546 151.311 98.337 153.414L99.6775 156.098C104.595 153.642 107.846 149.842 109.321 144.747L106.439 143.913ZM98.0787 155.934C99.7551 157.255 100.688 158.992 100.889 161.255L103.878 160.989C103.607 157.94 102.289 155.432 99.9357 153.577L98.0787 155.934ZM100.889 161.255C101.02 162.73 100.832 164.256 100.299 165.844L103.143 166.798C103.795 164.854 104.048 162.914 103.878 160.989L100.889 161.255ZM100.284 165.889L100.036 166.714L102.909 167.578L103.157 166.753L100.284 165.889ZM100.042 166.696C98.7209 170.899 96.3452 174.039 92.9148 176.204L94.5158 178.741C98.5895 176.17 101.385 172.427 102.904 167.596L100.042 166.696ZM92.9078 176.208C89.4856 178.395 84.5803 179.857 78.0687 180.488L78.3579 183.474C85.118 182.819 90.5473 181.276 94.5229 178.737L92.9078 176.208ZM78.0747 180.487L57.9211 182.357L58.1982 185.344L78.3518 183.475L78.0747 180.487ZM57.927 182.356L43.2647 183.658L43.53 186.646L58.1923 185.345L57.927 182.356ZM44.8163 185.639L63.444 131.299L60.6061 130.326L41.9784 184.666L44.8163 185.639ZM62.1577 132.306L92.5182 129.611L92.253 126.623L61.8924 129.318L62.1577 132.306ZM71.1312 141.19L67.8666 150.556L70.6995 151.543L73.9641 142.178L71.1312 141.19ZM69.4157 152.544L86.9467 150.987L86.6814 147.999L69.1504 149.555L69.4157 152.544ZM86.9467 150.987C89.0274 150.803 90.8373 150.265 92.2743 149.275L90.573 146.804C89.6889 147.413 88.4258 147.844 86.6814 147.999L86.9467 150.987ZM92.2519 149.291C93.7459 148.301 94.769 146.948 95.2371 145.258L92.346 144.458C92.0842 145.403 91.5287 146.171 90.5954 146.789L92.2519 149.291ZM95.241 145.244L95.482 144.339L92.583 143.567L92.342 144.472L95.241 145.244ZM95.4517 144.439C95.6908 143.74 95.7763 143.015 95.7109 142.278L92.7227 142.543C92.7516 142.869 92.7143 143.172 92.6132 143.468L95.4517 144.439ZM95.7109 142.278C95.5874 140.887 94.8234 139.816 93.5575 139.234L92.3053 141.96C92.6023 142.097 92.6953 142.235 92.7227 142.543L95.7109 142.278ZM93.6728 139.293C92.5611 138.661 91.1761 138.525 89.707 138.655L89.9723 141.643C91.1594 141.538 91.8356 141.7 92.19 141.901L93.6728 139.293ZM89.707 138.655L72.415 140.19L72.6803 143.178L89.9723 141.643L89.707 138.655ZM89.8111 164.706C90.0414 163.901 90.171 163.106 90.1059 162.373L87.1177 162.638C87.1374 162.86 87.1052 163.258 86.9268 163.881L89.8111 164.706ZM90.1059 162.373C89.9859 161.021 89.2777 159.941 88.0449 159.339C86.9395 158.799 85.5388 158.702 84.0294 158.836L84.2946 161.824C85.6008 161.708 86.3495 161.849 86.7274 162.034C86.9779 162.157 87.0867 162.29 87.1177 162.638L90.1059 162.373ZM84.0294 158.836L65.4624 160.484L65.7277 163.473L84.2946 161.824L84.0294 158.836ZM64.1793 161.483L60.7836 171.181L63.6151 172.172L67.0108 162.474L64.1793 161.483ZM62.332 173.171L81.2177 171.494L80.9524 168.506L62.0667 170.183L62.332 173.171ZM81.2177 171.494C83.2984 171.31 85.1083 170.772 86.5453 169.782L84.8439 167.311C83.9599 167.92 82.6967 168.351 80.9524 168.506L81.2177 171.494ZM86.562 169.771C88.05 168.716 89.061 167.287 89.5631 165.531L86.6788 164.706C86.3637 165.808 85.7571 166.664 84.8272 167.323L86.562 169.771ZM89.5575 165.551L89.8055 164.725L86.9325 163.862L86.6845 164.687L89.5575 165.551ZM189.99 119.452L191.41 119.937L192.157 117.753L189.858 117.958L189.99 119.452ZM189.225 121.688L190.394 122.628L190.559 122.423L190.644 122.174L189.225 121.688ZM154.651 164.674L153.482 163.734L153.482 163.734L154.651 164.674ZM148.125 171.678L147.146 170.542L147.139 170.548L147.132 170.554L148.125 171.678ZM142.192 175.418L141.636 174.025L141.626 174.029L142.192 175.418ZM120.523 178.305L119.104 177.817L118.352 180.004L120.655 179.799L120.523 178.305ZM124.801 165.878L124.668 164.384L123.699 164.47L123.382 165.39L124.801 165.878ZM137.913 164.313L138.512 165.688L137.913 164.313ZM140.249 162.579L141.333 163.616L141.909 163.015L141.703 162.208L140.249 162.579ZM131.134 126.845L129.7 126.404L129.576 126.807L129.68 127.216L131.134 126.845ZM131.819 124.616L131.687 123.122L130.682 123.211L130.386 124.175L131.819 124.616ZM144.649 123.477L146.112 123.146L145.822 121.867L144.516 121.983L144.649 123.477ZM150.598 149.774L149.134 150.105L149.833 153.191L151.78 150.697L150.598 149.774ZM173.097 120.951L172.964 119.457L172.315 119.515L171.915 120.028L173.097 120.951ZM188.571 118.966L187.806 121.202L190.644 122.174L191.41 119.937L188.571 118.966ZM188.056 120.748L153.482 163.734L155.82 165.614L190.394 122.628L188.056 120.748ZM153.482 163.734C151.103 166.693 148.991 168.952 147.146 170.542L149.104 172.815C151.138 171.062 153.377 168.652 155.82 165.614L153.482 163.734ZM147.132 170.554C145.358 172.122 143.525 173.27 141.636 174.025L142.749 176.811C144.996 175.913 147.119 174.569 149.118 172.803L147.132 170.554ZM141.626 174.029C139.781 174.781 137.545 175.288 134.893 175.524L135.158 178.512C138.031 178.257 140.573 177.698 142.758 176.807L141.626 174.029ZM134.893 175.524L120.39 176.811L120.655 179.799L135.158 178.512L134.893 175.524ZM121.941 178.793L126.219 166.367L123.382 165.39L119.104 177.817L121.941 178.793ZM124.933 167.372L134.974 166.481L134.708 163.493L124.668 164.384L124.933 167.372ZM134.974 166.481C136.335 166.36 137.535 166.113 138.512 165.688L137.315 162.937C136.745 163.185 135.897 163.387 134.708 163.493L134.974 166.481ZM138.512 165.688C139.519 165.25 140.456 164.533 141.333 163.616L139.166 161.542C138.475 162.264 137.855 162.702 137.315 162.937L138.512 165.688ZM141.703 162.208L132.587 126.475L129.68 127.216L138.796 162.95L141.703 162.208ZM132.567 127.286L133.253 125.057L130.386 124.175L129.7 126.404L132.567 127.286ZM131.952 126.11L144.781 124.971L144.516 121.983L131.687 123.122L131.952 126.11ZM143.186 123.808L149.134 150.105L152.061 149.443L146.112 123.146L143.186 123.808ZM151.78 150.697L174.279 121.874L171.915 120.028L149.415 148.851L151.78 150.697ZM173.23 122.446L190.123 120.946L189.858 117.958L172.964 119.457L173.23 122.446ZM262.241 115.206L263.261 116.305L263.556 116.032L263.674 115.647L262.241 115.206ZM232.486 142.825L231.466 141.726L230.638 142.494L231.148 143.502L232.486 142.825ZM243.789 165.194L245.208 165.679L245.413 165.081L245.127 164.517L243.789 165.194ZM243.023 167.43L243.156 168.924L244.127 168.838L244.443 167.916L243.023 167.43ZM230.752 168.519L229.397 169.162L229.844 170.106L230.884 170.014L230.752 168.519ZM221.464 148.944L222.819 148.301L222.372 147.358L221.332 147.45L221.464 148.944ZM210.627 149.906L210.494 148.412L209.524 148.498L209.208 149.42L210.627 149.906ZM203.419 170.946L203.552 172.44L204.522 172.354L204.838 171.432L203.419 170.946ZM188.757 172.248L187.338 171.761L186.589 173.946L188.89 173.742L188.757 172.248ZM207.385 117.907L207.252 116.413L206.282 116.499L205.966 117.421L207.385 117.907ZM222.047 116.606L223.466 117.091L224.213 114.908L221.914 115.112L222.047 116.606ZM214.905 137.479L213.486 136.994L212.738 139.177L215.037 138.973L214.905 137.479ZM221.28 136.913L221.412 138.407L221.93 138.361L222.308 138.005L221.28 136.913ZM244.997 114.568L244.864 113.074L244.346 113.12L243.968 113.477L244.997 114.568ZM262.926 112.977L264.36 113.418L265.016 111.285L262.794 111.482L262.926 112.977ZM261.22 114.107L231.466 141.726L233.507 143.925L263.261 116.305L261.22 114.107ZM231.148 143.502L242.45 165.87L245.127 164.517L233.825 142.149L231.148 143.502ZM242.369 164.708L241.604 166.944L244.443 167.916L245.208 165.679L242.369 164.708ZM242.891 165.936L230.619 167.025L230.884 170.014L243.156 168.924L242.891 165.936ZM232.107 167.876L222.819 148.301L220.109 149.587L229.397 169.162L232.107 167.876ZM221.332 147.45L210.494 148.412L210.76 151.4L221.597 150.438L221.332 147.45ZM209.208 149.42L202 170.46L204.838 171.432L212.046 150.392L209.208 149.42ZM203.287 169.452L188.624 170.753L188.89 173.742L203.552 172.44L203.287 169.452ZM190.176 172.734L208.804 118.394L205.966 117.421L187.338 171.761L190.176 172.734ZM207.517 119.402L222.18 118.1L221.914 115.112L207.252 116.413L207.517 119.402ZM220.628 116.12L213.486 136.994L216.324 137.965L223.466 117.091L220.628 116.12ZM215.037 138.973L221.412 138.407L221.147 135.419L214.772 135.985L215.037 138.973ZM222.308 138.005L246.025 115.66L243.968 113.477L220.251 135.821L222.308 138.005ZM245.129 116.062L263.059 114.471L262.794 111.482L244.864 113.074L245.129 116.062ZM261.492 112.536L260.807 114.765L263.674 115.647L264.36 113.418L261.492 112.536ZM332.938 157.841L332.482 159.27L332.492 159.274L332.503 159.277L332.938 157.841ZM322.312 151.235L321.175 152.213L321.18 152.219L321.186 152.226L322.312 151.235ZM319.256 130.384L320.681 130.853L320.692 130.819L320.702 130.784L319.256 130.384ZM319.439 129.725L318.01 129.267L318.001 129.295L317.993 129.324L319.439 129.725ZM331.326 111.643L332.26 112.816L332.26 112.816L331.326 111.643ZM366.67 105.373L366.229 106.807L366.24 106.81L366.251 106.813L366.67 105.373ZM377.493 111.48L378.563 110.429L377.493 111.48ZM381.691 126.206L383.117 126.673L383.139 126.606L383.154 126.539L381.691 126.206ZM381.502 126.785L381.634 128.279L382.62 128.192L382.927 127.252L381.502 126.785ZM367.158 128.058L365.685 127.776L365.31 129.728L367.291 129.553L367.158 128.058ZM367.268 127.487L365.809 127.14L365.801 127.172L365.795 127.204L367.268 127.487ZM362.993 118.228L362.287 119.552L362.993 118.228ZM340.338 120.882L341.238 122.083L341.243 122.079L340.338 120.882ZM333.495 130.645L332.074 130.165L332.057 130.216L332.043 130.268L333.495 130.645ZM333.196 131.796L334.614 132.286L334.633 132.23L334.647 132.174L333.196 131.796ZM336.92 144.798L336.177 146.101L336.92 144.798ZM359.115 143.309L359.884 144.597L359.115 143.309ZM364.786 136.622L363.361 136.155L363.356 136.168L363.353 136.18L364.786 136.622ZM364.976 136.043L364.843 134.549L363.858 134.636L363.55 135.576L364.976 136.043ZM380.036 134.706L381.462 135.172L382.17 133.01L379.904 133.212L380.036 134.706ZM379.847 135.285L378.421 134.818L378.417 134.83L378.414 134.842L379.847 135.285ZM368.65 152.101L367.746 150.904L368.65 152.101ZM348.259 157.626C342.616 158.127 337.663 157.705 333.373 156.406L332.503 159.277C337.236 160.71 342.585 161.141 348.524 160.614L348.259 157.626ZM333.394 156.412C329.142 155.056 325.849 152.986 323.438 150.244L321.186 152.226C324.016 155.444 327.807 157.778 332.482 159.27L333.394 156.412ZM323.449 150.257C321.095 147.521 319.747 144.282 319.41 140.49L316.422 140.755C316.812 145.143 318.394 148.98 321.175 152.213L323.449 150.257ZM319.41 140.49C319.143 137.482 319.554 134.275 320.681 130.853L317.831 129.914C316.597 133.662 316.114 137.281 316.422 140.755L319.41 140.49ZM320.702 130.784L320.884 130.125L317.993 129.324L317.811 129.983L320.702 130.784ZM320.867 130.183C323.266 122.702 327.077 116.942 332.26 112.816L330.392 110.469C324.673 115.021 320.56 121.316 318.01 129.267L320.867 130.183ZM332.26 112.816C337.443 108.691 343.965 106.244 351.907 105.539L351.642 102.551C343.221 103.298 336.112 105.916 330.392 110.469L332.26 112.816ZM351.907 105.539C357.219 105.067 361.986 105.502 366.229 106.807L367.111 103.939C362.437 102.502 357.273 102.051 351.642 102.551L351.907 105.539ZM366.251 106.813C370.564 108.07 373.929 109.991 376.422 112.531L378.563 110.429C375.64 107.452 371.791 105.302 367.09 103.933L366.251 106.813ZM376.422 112.531C378.9 115.054 380.255 117.946 380.548 121.248L383.537 120.982C383.179 116.953 381.501 113.421 378.563 110.429L376.422 112.531ZM380.548 121.248C380.685 122.789 380.58 124.329 380.229 125.874L383.154 126.539C383.573 124.695 383.702 122.841 383.537 120.982L380.548 121.248ZM380.266 125.739L380.076 126.318L382.927 127.252L383.117 126.673L380.266 125.739ZM381.369 125.291L367.026 126.564L367.291 129.553L381.634 128.279L381.369 125.291ZM368.631 128.341L368.741 127.769L365.795 127.204L365.685 127.776L368.631 128.341ZM368.727 127.833C368.996 126.7 369.085 125.568 368.986 124.443L365.997 124.708C366.067 125.495 366.007 126.304 365.809 127.14L368.727 127.833ZM368.986 124.443C368.689 121.105 366.833 118.577 363.698 116.905L362.287 119.552C364.66 120.818 365.803 122.52 365.997 124.708L368.986 124.443ZM363.698 116.905C360.596 115.25 356.637 114.717 351.956 115.132L352.221 118.12C356.571 117.734 359.881 118.269 362.287 119.552L363.698 116.905ZM351.956 115.132C347.097 115.564 342.902 117.064 339.434 119.685L341.243 122.079C344.197 119.846 347.835 118.51 352.221 118.12L351.956 115.132ZM339.439 119.681C336.008 122.251 333.56 125.77 332.074 130.165L334.916 131.126C336.229 127.241 338.343 124.251 341.238 122.083L339.439 119.681ZM332.043 130.268L331.744 131.419L334.647 132.174L334.947 131.023L332.043 130.268ZM331.778 131.307C330.996 133.575 330.679 135.793 330.87 137.946L333.859 137.681C333.71 136.009 333.948 134.216 334.614 132.286L331.778 131.307ZM330.87 137.946C331.189 141.533 333.001 144.291 336.177 146.101L337.663 143.495C335.312 142.155 334.087 140.256 333.859 137.681L330.87 137.946ZM336.177 146.101C339.305 147.884 343.368 148.462 348.21 148.032L347.945 145.044C343.437 145.444 340.062 144.862 337.663 143.495L336.177 146.101ZM348.21 148.032C352.782 147.626 356.694 146.503 359.884 144.597L358.346 142.022C355.639 143.638 352.192 144.667 347.945 145.044L348.21 148.032ZM359.884 144.597C363.079 142.689 365.256 140.189 366.22 137.064L363.353 136.18C362.653 138.45 361.049 140.407 358.346 142.022L359.884 144.597ZM366.212 137.088L366.401 136.509L363.55 135.576L363.361 136.155L366.212 137.088ZM365.108 137.537L380.169 136.2L379.904 133.212L364.843 134.549L365.108 137.537ZM378.611 134.239L378.421 134.818L381.272 135.751L381.462 135.172L378.611 134.239ZM378.414 134.842C376.245 141.859 372.674 147.18 367.746 150.904L369.554 153.297C375.063 149.135 378.957 143.245 381.28 135.728L378.414 134.842ZM367.746 150.904C362.805 154.638 356.341 156.908 348.259 157.626L348.524 160.614C357.016 159.86 364.058 157.451 369.554 153.297L367.746 150.904ZM454.288 98.9596L453.518 100.247L453.53 100.254L454.288 98.9596ZM458.453 112.404L459.89 112.836L459.892 112.829L458.453 112.404ZM458.205 113.229L456.769 112.797L456.767 112.805L456.765 112.812L458.205 113.229ZM449.333 123.655L448.662 122.313L446.547 123.369L448.404 124.833L449.333 123.655ZM452.046 135.22L450.624 134.743L450.616 134.765L450.609 134.788L452.046 135.22ZM451.798 136.045L453.229 136.495L453.232 136.486L453.234 136.477L451.798 136.045ZM444.041 146.372L443.24 145.103L443.233 145.107L444.041 146.372ZM428.539 150.88L428.677 152.374L428.683 152.373L428.539 150.88ZM408.385 152.75L408.518 154.244L408.524 154.243L408.385 152.75ZM393.723 154.051L392.304 153.565L391.555 155.75L393.855 155.545L393.723 154.051ZM412.35 99.7111L412.218 98.217L411.247 98.3031L410.931 99.2247L412.35 99.7111ZM422.873 110.583L422.74 109.089L421.775 109.175L421.457 110.089L422.873 110.583ZM419.608 119.949L418.192 119.455L417.427 121.648L419.741 121.443L419.608 119.949ZM441.749 116.939L440.921 115.688L440.909 115.696L440.898 115.703L441.749 116.939ZM444.117 113.757L445.562 114.157L445.564 114.15L445.566 114.143L444.117 113.757ZM444.358 112.852L442.939 112.367L442.922 112.416L442.908 112.466L444.358 112.852ZM443.257 109.496L442.515 110.8L442.572 110.832L442.631 110.859L443.257 109.496ZM438.694 133.193L440.131 133.624L440.134 133.615L440.136 133.605L438.694 133.193ZM415.92 130.878L415.788 129.383L414.824 129.469L414.505 130.382L415.92 130.878ZM412.525 140.576L411.109 140.08L410.34 142.276L412.657 142.07L412.525 140.576ZM436.02 137.446L436.871 138.681L436.879 138.676L436.887 138.67L436.02 137.446ZM438.446 134.018L437.01 133.586L437.007 133.596L437.004 133.605L438.446 134.018ZM442.844 98.5099C447.497 98.0967 451.002 98.742 453.518 100.247L455.058 97.6723C451.806 95.727 447.593 95.0764 442.578 95.5216L442.844 98.5099ZM453.53 100.254C456.047 101.728 457.393 103.855 457.652 106.773L460.641 106.507C460.296 102.626 458.404 99.6318 455.046 97.6653L453.53 100.254ZM457.652 106.773C457.788 108.299 457.591 110.028 457.015 111.979L459.892 112.829C460.551 110.6 460.816 108.487 460.641 106.507L457.652 106.773ZM457.017 111.972L456.769 112.797L459.642 113.661L459.89 112.836L457.017 111.972ZM456.765 112.812C455.535 117.059 452.871 120.21 448.662 122.313L450.003 124.997C454.92 122.541 458.171 118.741 459.646 113.646L456.765 112.812ZM448.404 124.833C450.08 126.154 451.014 127.891 451.215 130.154L454.203 129.888C453.932 126.839 452.615 124.331 450.261 122.476L448.404 124.833ZM451.215 130.154C451.346 131.629 451.157 133.155 450.624 134.743L453.468 135.697C454.12 133.753 454.374 131.813 454.203 129.888L451.215 130.154ZM450.609 134.788L450.361 135.613L453.234 136.477L453.482 135.652L450.609 134.788ZM450.367 135.595C449.046 139.798 446.671 142.938 443.24 145.103L444.841 147.64C448.915 145.069 451.711 141.326 453.229 136.495L450.367 135.595ZM443.233 145.107C439.811 147.294 434.906 148.756 428.394 149.387L428.683 152.373C435.443 151.718 440.873 150.175 444.848 147.636L443.233 145.107ZM428.4 149.386L408.246 151.256L408.524 154.243L428.677 152.374L428.4 149.386ZM408.252 151.255L393.59 152.557L393.855 155.545L408.518 154.244L408.252 151.255ZM395.142 154.538L413.769 100.198L410.931 99.2247L392.304 153.565L395.142 154.538ZM412.483 101.205L442.844 98.5099L442.578 95.5216L412.218 98.217L412.483 101.205ZM421.457 110.089L418.192 119.455L421.025 120.442L424.289 111.077L421.457 110.089ZM419.741 121.443L437.272 119.886L437.007 116.898L419.476 118.454L419.741 121.443ZM437.272 119.886C439.353 119.702 441.163 119.164 442.6 118.174L440.898 115.703C440.014 116.312 438.751 116.743 437.007 116.898L437.272 119.886ZM442.577 118.189C444.071 117.2 445.094 115.847 445.562 114.157L442.671 113.357C442.409 114.302 441.854 115.07 440.921 115.688L442.577 118.189ZM445.566 114.143L445.807 113.238L442.908 112.466L442.667 113.371L445.566 114.143ZM445.777 113.338C446.016 112.639 446.102 111.914 446.036 111.177L443.048 111.442C443.077 111.768 443.04 112.071 442.939 112.367L445.777 113.338ZM446.036 111.177C445.913 109.786 445.149 108.715 443.883 108.133L442.631 110.859C442.928 110.996 443.021 111.134 443.048 111.442L446.036 111.177ZM443.998 108.192C442.886 107.56 441.501 107.423 440.032 107.554L440.298 110.542C441.485 110.437 442.161 110.599 442.515 110.8L443.998 108.192ZM440.032 107.554L422.74 109.089L423.006 112.077L440.298 110.542L440.032 107.554ZM440.136 133.605C440.367 132.8 440.496 132.005 440.431 131.272L437.443 131.537C437.463 131.759 437.431 132.157 437.252 132.78L440.136 133.605ZM440.431 131.272C440.311 129.92 439.603 128.84 438.37 128.238C437.265 127.698 435.864 127.601 434.355 127.735L434.62 130.723C435.926 130.607 436.675 130.748 437.053 130.933C437.303 131.056 437.412 131.189 437.443 131.537L440.431 131.272ZM434.355 127.735L415.788 129.383L416.053 132.372L434.62 130.723L434.355 127.735ZM414.505 130.382L411.109 140.08L413.94 141.071L417.336 131.373L414.505 130.382ZM412.657 142.07L431.543 140.393L431.278 137.405L412.392 139.082L412.657 142.07ZM431.543 140.393C433.624 140.209 435.434 139.671 436.871 138.681L435.169 136.21C434.285 136.819 433.022 137.25 431.278 137.405L431.543 140.393ZM436.887 138.67C438.375 137.615 439.386 136.186 439.888 134.43L437.004 133.605C436.689 134.707 436.082 135.563 435.153 136.222L436.887 138.67ZM439.883 134.45L440.131 133.624L437.258 132.761L437.01 133.586L439.883 134.45ZM491.123 143.718L490.654 145.143L490.661 145.145L491.123 143.718ZM480.736 137.09L479.599 138.068L480.736 137.09ZM477.505 116.977L476.079 116.51L476.077 116.518L476.075 116.525L477.505 116.977ZM477.694 116.398L479.12 116.865L479.123 116.854L477.694 116.398ZM525.507 91.352L525.038 92.7768L525.045 92.7789L525.507 91.352ZM535.973 97.9723L534.836 98.9505L534.844 98.9596L535.973 97.9723ZM539.132 118.172L540.558 118.639L540.562 118.625L540.566 118.612L539.132 118.172ZM538.942 118.751L537.517 118.285L537.514 118.293L537.511 118.302L538.942 118.751ZM517.541 128.281L518.454 129.471L518.454 129.471L517.541 128.281ZM524.53 118.344L523.134 117.795L523.125 117.817L523.117 117.84L524.53 118.344ZM524.923 117.345L526.319 117.895L526.322 117.887L526.325 117.879L524.923 117.345ZM521.213 104.503L520.435 105.786L521.213 104.503ZM492.027 116.812L493.423 117.362L493.428 117.349L493.433 117.337L492.027 116.812ZM491.634 117.811L490.238 117.261L490.235 117.269L490.232 117.277L491.634 117.811ZM495.264 130.66L494.504 131.953L495.264 130.66ZM506.052 143.617C500.579 144.103 495.767 143.645 491.585 142.291L490.661 145.145C495.3 146.648 500.529 147.119 506.318 146.605L506.052 143.617ZM491.592 142.293C487.45 140.93 484.235 138.858 481.873 136.112L479.599 138.068C482.372 141.292 486.081 143.638 490.654 145.143L491.592 142.293ZM481.873 136.112C479.517 133.372 478.173 130.159 477.842 126.424L474.853 126.69C475.239 131.029 476.821 134.839 479.599 138.068L481.873 136.112ZM477.842 126.424C477.588 123.563 477.942 120.569 478.935 117.429L476.075 116.525C474.977 119.996 474.56 123.389 474.853 126.69L477.842 126.424ZM478.93 117.444L479.12 116.865L476.269 115.931L476.079 116.51L478.93 117.444ZM479.123 116.854C481.629 109.003 485.508 103.034 490.707 98.8454C495.906 94.6578 502.527 92.1673 510.657 91.4455L510.392 88.4572C501.788 89.2211 494.57 91.8812 488.825 96.5091C483.081 101.136 478.912 107.648 476.265 115.942L479.123 116.854ZM510.657 91.4455C516.131 90.9595 520.914 91.4199 525.038 92.7768L525.976 89.9271C521.385 88.4167 516.18 87.9434 510.392 88.4572L510.657 91.4455ZM525.045 92.7789C529.24 94.1382 532.478 96.2091 534.836 98.9505L537.111 96.9942C534.334 93.7663 530.594 91.4235 525.969 89.925L525.045 92.7789ZM534.844 98.9596C537.189 101.642 538.529 104.823 538.861 108.558L541.849 108.293C541.464 103.953 539.883 100.166 537.103 96.9851L534.844 98.9596ZM538.861 108.558C539.104 111.301 538.733 114.353 537.698 117.733L540.566 118.612C541.689 114.946 542.134 111.5 541.849 108.293L538.861 108.558ZM537.706 117.706L537.517 118.285L540.368 119.218L540.558 118.639L537.706 117.706ZM537.511 118.302C535.057 126.118 531.21 132.062 526.025 136.235C520.839 140.407 514.211 142.893 506.052 143.617L506.318 146.605C514.946 145.839 522.171 143.186 527.905 138.572C533.639 133.958 537.778 127.467 540.374 119.201L537.511 118.302ZM506.243 134.003C510.952 133.584 515.043 132.088 518.454 129.471L516.629 127.091C513.724 129.318 510.193 130.64 505.978 131.014L506.243 134.003ZM518.454 129.471C521.869 126.853 524.357 123.289 525.943 118.849L523.117 117.84C521.701 121.804 519.53 124.865 516.629 127.091L518.454 129.471ZM525.926 118.894L526.319 117.895L523.528 116.796L523.134 117.795L525.926 118.894ZM526.325 117.879C527.135 115.751 527.464 113.624 527.277 111.514L524.289 111.78C524.431 113.389 524.188 115.061 523.521 116.812L526.325 117.879ZM527.277 111.514C526.959 107.931 525.149 105.135 521.991 103.221L520.435 105.786C522.823 107.234 524.06 109.2 524.289 111.78L527.277 111.514ZM521.991 103.221C518.855 101.319 514.858 100.67 510.148 101.088L510.413 104.077C514.734 103.693 518.025 104.324 520.435 105.786L521.991 103.221ZM510.148 101.088C505.445 101.506 501.406 102.975 498.101 105.551C494.799 108.125 492.321 111.734 490.622 116.288L493.433 117.337C494.977 113.196 497.163 110.086 499.946 107.917C502.725 105.75 506.191 104.451 510.413 104.077L510.148 101.088ZM490.631 116.263L490.238 117.261L493.03 118.361L493.423 117.362L490.631 116.263ZM490.232 117.277C489.386 119.496 489.024 121.653 489.208 123.729L492.196 123.463C492.06 121.926 492.318 120.227 493.036 118.345L490.232 117.277ZM489.208 123.729C489.526 127.314 491.337 130.09 494.504 131.953L496.025 129.367C493.655 127.974 492.425 126.041 492.196 123.463L489.208 123.729ZM494.504 131.953C497.629 133.792 501.589 134.416 506.243 134.003L505.978 131.014C501.707 131.393 498.436 130.786 496.025 129.367L494.504 131.953ZM620.5 81.2321L621.92 81.7177L622.667 79.5338L620.368 79.7379L620.5 81.2321ZM616.419 93.1597L616.552 94.6538L617.523 94.5676L617.838 93.6453L616.419 93.1597ZM581.676 96.2441L581.543 94.75L580.569 94.8364L580.255 95.7621L581.676 96.2441ZM578.556 105.436L577.136 104.954L576.396 107.134L578.689 106.93L578.556 105.436ZM602.843 104.886L602.38 106.313L602.843 104.886ZM609.056 108.832L607.923 109.815L609.056 108.832ZM610.957 121.193L609.528 120.735L609.517 120.771L609.507 120.807L610.957 121.193ZM610.716 122.097L612.147 122.547L612.157 122.515L612.165 122.483L610.716 122.097ZM603.516 132.374L602.664 131.14L602.656 131.146L603.516 132.374ZM552.467 139.958L551.048 139.472L550.299 141.657L552.6 141.452L552.467 139.958ZM571.095 85.6182L570.962 84.124L569.992 84.2102L569.676 85.1318L571.095 85.6182ZM594.64 123.765L595.427 125.043L595.438 125.036L595.449 125.029L594.64 123.765ZM597.008 120.584L598.445 121.015L598.452 120.993L598.458 120.97L597.008 120.584ZM597.249 119.679L595.824 119.212L595.81 119.252L595.8 119.293L597.249 119.679ZM595.969 115.214L596.67 113.888L595.969 115.214ZM574.775 116.213L574.642 114.718L573.668 114.805L573.354 115.731L574.775 116.213ZM571.211 126.729L569.79 126.248L569.051 128.427L571.343 128.223L571.211 126.729ZM619.081 80.7465L615 92.6741L617.838 93.6453L621.92 81.7177L619.081 80.7465ZM616.287 91.6656L581.543 94.75L581.808 97.7382L616.552 94.6538L616.287 91.6656ZM580.255 95.7621L577.136 104.954L579.977 105.918L583.096 96.7262L580.255 95.7621ZM578.689 106.93L594.148 105.558L593.883 102.569L578.424 103.942L578.689 106.93ZM594.148 105.558C597.283 105.279 600.017 105.546 602.38 106.313L603.306 103.459C600.486 102.544 597.336 102.263 593.883 102.569L594.148 105.558ZM602.38 106.313C604.751 107.082 606.576 108.261 607.923 109.815L610.19 107.85C608.434 105.824 606.117 104.372 603.306 103.459L602.38 106.313ZM607.923 109.815C609.259 111.357 610.024 113.174 610.214 115.315L613.202 115.05C612.959 112.304 611.955 109.887 610.19 107.85L607.923 109.815ZM610.214 115.315C610.364 117.002 610.147 118.804 609.528 120.735L612.385 121.65C613.108 119.393 613.392 117.188 613.202 115.05L610.214 115.315ZM609.507 120.807L609.266 121.711L612.165 122.483L612.406 121.579L609.507 120.807ZM609.285 121.648C607.949 125.896 605.728 129.023 602.664 131.14L604.369 133.609C608.065 131.056 610.643 127.331 612.147 122.547L609.285 121.648ZM602.656 131.146C599.627 133.267 595.2 134.659 589.229 135.189L589.495 138.177C595.742 137.622 600.752 136.142 604.377 133.603L602.656 131.146ZM589.229 135.189L552.334 138.464L552.6 141.452L589.495 138.177L589.229 135.189ZM553.886 140.445L572.514 86.1046L569.676 85.1318L551.048 139.472L553.886 140.445ZM571.227 87.1123L620.633 82.7262L620.368 79.7379L570.962 84.124L571.227 87.1123ZM590.07 126.561C592.206 126.371 594.033 125.901 595.427 125.043L593.853 122.488C593.014 123.006 591.705 123.404 589.804 123.572L590.07 126.561ZM595.449 125.029C596.928 124.082 597.932 122.72 598.445 121.015L595.572 120.152C595.257 121.198 594.683 121.957 593.832 122.502L595.449 125.029ZM598.458 120.97L598.699 120.065L595.8 119.293L595.559 120.198L598.458 120.97ZM598.675 120.145C598.974 119.23 599.116 118.318 599.037 117.432L596.049 117.697C596.084 118.086 596.029 118.583 595.824 119.212L598.675 120.145ZM599.037 117.432C598.897 115.855 598.068 114.626 596.67 113.888L595.269 116.541C595.781 116.811 596.001 117.149 596.049 117.697L599.037 117.432ZM596.67 113.888C595.351 113.192 593.689 113.028 591.854 113.19L592.12 116.179C593.685 116.04 594.678 116.229 595.269 116.541L596.67 113.888ZM591.854 113.19L574.642 114.718L574.907 117.707L592.12 116.179L591.854 113.19ZM573.354 115.731L569.79 126.248L572.631 127.21L576.195 116.694L573.354 115.731ZM571.343 128.223L590.07 126.561L589.804 123.572L571.078 125.235L571.343 128.223ZM649.867 129.625L649.398 131.05L649.405 131.052L649.867 129.625ZM639.481 122.997L638.343 123.975L639.481 122.997ZM636.249 102.884L634.824 102.418L634.821 102.425L634.819 102.432L636.249 102.884ZM636.439 102.305L637.864 102.772L637.868 102.761L636.439 102.305ZM684.251 77.259L683.782 78.6839L683.789 78.686L684.251 77.259ZM694.718 83.8794L693.581 84.8576L693.588 84.8666L694.718 83.8794ZM697.876 104.079L699.302 104.546L699.306 104.532L699.311 104.519L697.876 104.079ZM697.687 104.658L696.261 104.192L696.258 104.2L696.256 104.209L697.687 104.658ZM676.286 114.188L677.199 115.378L676.286 114.188ZM683.274 104.251L681.879 103.702L681.87 103.724L681.862 103.747L683.274 104.251ZM683.668 103.252L685.063 103.802L685.067 103.794L685.07 103.786L683.668 103.252ZM679.957 90.4102L679.18 91.6929L679.957 90.4102ZM650.772 102.719L652.167 103.269L652.172 103.256L652.177 103.244L650.772 102.719ZM650.378 103.718L648.983 103.168L648.98 103.176L648.977 103.184L650.378 103.718ZM654.009 116.567L653.248 117.86L654.009 116.567ZM664.797 129.524C659.324 130.01 654.511 129.553 650.33 128.198L649.405 131.052C654.044 132.555 659.273 133.026 665.062 132.512L664.797 129.524ZM650.336 128.2C646.195 126.837 642.979 124.765 640.618 122.019L638.343 123.975C641.116 127.199 644.825 129.545 649.398 131.05L650.336 128.2ZM640.618 122.019C638.261 119.279 636.918 116.067 636.586 112.331L633.598 112.597C633.983 116.937 635.565 120.746 638.343 123.975L640.618 122.019ZM636.586 112.331C636.332 109.47 636.687 106.476 637.68 103.336L634.819 102.432C633.721 105.903 633.305 109.296 633.598 112.597L636.586 112.331ZM637.675 103.351L637.864 102.772L635.013 101.839L634.824 102.418L637.675 103.351ZM637.868 102.761C640.373 94.9101 644.252 88.9408 649.452 84.7525C654.65 80.5648 661.271 78.0743 669.401 77.3525L669.136 74.3643C660.532 75.1282 653.315 77.7883 647.57 82.4162C641.826 87.0435 637.657 93.5547 635.01 101.849L637.868 102.761ZM669.401 77.3525C674.875 76.8666 679.658 77.3269 683.782 78.6839L684.72 75.8342C680.13 74.3238 674.925 73.8504 669.136 74.3643L669.401 77.3525ZM683.789 78.686C687.984 80.0453 691.222 82.1162 693.581 84.8576L695.855 82.9012C693.078 79.6733 689.339 77.3306 684.714 75.832L683.789 78.686ZM693.588 84.8666C695.933 87.5488 697.274 90.7305 697.605 94.4655L700.593 94.2003C700.208 89.8604 698.628 86.0731 695.847 82.8922L693.588 84.8666ZM697.605 94.4655C697.849 97.2084 697.478 100.26 696.442 103.64L699.311 104.519C700.434 100.853 700.878 97.4073 700.593 94.2003L697.605 94.4655ZM696.451 103.613L696.261 104.192L699.112 105.125L699.302 104.546L696.451 103.613ZM696.256 104.209C693.801 112.026 689.954 117.969 684.769 122.142C679.584 126.314 672.956 128.8 664.797 129.524L665.062 132.512C673.691 131.746 680.916 129.093 686.65 124.479C692.384 119.865 696.522 113.374 699.118 105.108L696.256 104.209ZM664.987 119.91C669.697 119.492 673.787 117.995 677.199 115.378L675.373 112.998C672.468 115.226 668.938 116.547 664.722 116.921L664.987 119.91ZM677.199 115.378C680.613 112.76 683.101 109.196 684.687 104.756L681.862 103.747C680.446 107.711 678.275 110.772 675.373 112.998L677.199 115.378ZM684.67 104.801L685.063 103.802L682.272 102.703L681.879 103.702L684.67 104.801ZM685.07 103.786C685.879 101.658 686.208 99.5312 686.021 97.4215L683.033 97.6868C683.176 99.2958 682.932 100.968 682.266 102.719L685.07 103.786ZM686.021 97.4215C685.703 93.8384 683.893 91.0425 680.735 89.1276L679.18 91.6929C681.568 93.1408 682.804 95.1074 683.033 97.6868L686.021 97.4215ZM680.735 89.1276C677.599 87.2262 673.603 86.5772 668.892 86.9954L669.157 89.9836C673.478 89.6 676.77 90.2315 679.18 91.6929L680.735 89.1276ZM668.892 86.9954C664.189 87.4129 660.15 88.8818 656.846 91.4582C653.544 94.0322 651.065 97.6409 649.366 102.195L652.177 103.244C653.722 99.1035 655.907 95.9935 658.69 93.8242C661.47 91.6573 664.935 90.3585 669.157 89.9836L668.892 86.9954ZM649.376 102.17L648.983 103.168L651.774 104.268L652.167 103.269L649.376 102.17ZM648.977 103.184C648.131 105.403 647.768 107.56 647.952 109.636L650.94 109.37C650.804 107.833 651.062 106.134 651.78 104.252L648.977 103.184ZM647.952 109.636C648.27 113.221 650.082 115.997 653.248 117.86L654.769 115.274C652.4 113.881 651.169 111.948 650.94 109.37L647.952 109.636ZM653.248 117.86C656.374 119.699 660.333 120.323 664.987 119.91L664.722 116.921C660.452 117.3 657.18 116.693 654.769 115.274L653.248 117.86ZM766.723 108.89L765.304 108.404L764.556 110.588L766.855 110.384L766.723 108.89ZM774.771 108.175L776.19 108.662L776.939 106.477L774.639 106.681L774.771 108.175ZM766.733 131.618L766.865 133.112L767.836 133.026L768.152 132.105L766.733 131.618ZM752.15 132.913L750.73 132.428L749.985 134.611L752.283 134.407L752.15 132.913ZM755.911 121.897L757.33 122.382L758.075 120.199L755.778 120.403L755.911 121.897ZM718.219 125.243L718.086 123.749L717.115 123.835L716.799 124.759L718.219 125.243ZM714.458 136.259L714.591 137.753L715.563 137.667L715.878 136.744L714.458 136.259ZM699.876 137.554L698.457 137.067L697.708 139.252L700.008 139.048L699.876 137.554ZM707.914 114.111L707.781 112.617L706.811 112.703L706.495 113.624L707.914 114.111ZM714.289 113.545L714.422 115.039L715.036 114.985L715.434 114.514L714.289 113.545ZM724.604 95.8434L726.013 96.359L726.014 96.3566L724.604 95.8434ZM733.579 71.1932L733.447 69.6991L732.496 69.7834L732.17 70.68L733.579 71.1932ZM781.073 66.9768L782.492 67.4627L783.24 65.2786L780.94 65.4827L781.073 66.9768ZM737.936 96.748L739.344 97.2667L739.345 97.2646L737.936 96.748ZM734.247 104.946L732.934 104.221L732.928 104.232L732.922 104.242L734.247 104.946ZM729.669 112.18L728.46 111.291L726.494 113.967L729.801 113.674L729.669 112.18ZM752.459 110.156L752.592 111.65L753.561 111.564L753.877 110.645L752.459 110.156ZM762.611 80.6631L764.029 81.1513L764.785 78.9546L762.472 79.1695L762.611 80.6631ZM743.174 82.4689L743.035 80.9753L742.092 81.063L741.766 81.9523L743.174 82.4689ZM766.855 110.384L774.904 109.67L774.639 106.681L766.59 107.396L766.855 110.384ZM773.352 107.689L765.314 131.132L768.152 132.105L776.19 108.662L773.352 107.689ZM766.6 130.124L752.017 131.419L752.283 134.407L766.865 133.112L766.6 130.124ZM753.57 133.397L757.33 122.382L754.491 121.412L750.73 132.428L753.57 133.397ZM755.778 120.403L718.086 123.749L718.352 126.737L756.043 123.391L755.778 120.403ZM716.799 124.759L713.039 135.774L715.878 136.744L719.638 125.728L716.799 124.759ZM714.326 134.765L699.743 136.059L700.008 139.048L714.591 137.753L714.326 134.765ZM701.295 138.04L709.333 114.597L706.495 113.624L698.457 137.067L701.295 138.04ZM708.047 115.605L714.422 115.039L714.156 112.051L707.781 112.617L708.047 115.605ZM715.434 114.514C720.053 109.055 723.581 103.001 726.013 96.359L723.196 95.3278C720.887 101.635 717.538 107.383 713.144 112.576L715.434 114.514ZM726.014 96.3566L734.989 71.7064L732.17 70.68L723.195 95.3302L726.014 96.3566ZM733.712 72.6873L781.205 68.471L780.94 65.4827L733.447 69.6991L733.712 72.6873ZM779.654 66.491L765.304 108.404L768.142 109.376L782.492 67.4627L779.654 66.491ZM736.529 96.2294C735.429 99.2144 734.229 101.876 732.934 104.221L735.56 105.672C736.94 103.174 738.2 100.371 739.344 97.2667L736.529 96.2294ZM732.922 104.242C731.675 106.589 730.188 108.939 728.46 111.291L730.877 113.068C732.684 110.609 734.25 108.136 735.571 105.651L732.922 104.242ZM729.801 113.674L752.592 111.65L752.326 108.662L729.536 110.685L729.801 113.674ZM753.877 110.645L764.029 81.1513L761.192 80.1749L751.041 109.668L753.877 110.645ZM762.472 79.1695L743.035 80.9753L743.313 83.9625L762.749 82.1566L762.472 79.1695ZM741.766 81.9523L736.528 96.2314L739.345 97.2646L744.582 82.9855L741.766 81.9523ZM823.72 63.1907L825.139 63.6757L825.885 61.4926L823.587 61.6966L823.72 63.1907ZM817.664 80.9157L816.244 80.4307L815.498 82.6139L817.796 82.4098L817.664 80.9157ZM839.023 80.8667L838.485 82.2671L838.497 82.2717L838.51 82.2762L839.023 80.8667ZM845.199 85.2979L844.002 86.2023L844.01 86.2129L844.019 86.2234L845.199 85.2979ZM847.009 99.353L845.585 98.8824L845.569 98.9284L845.557 98.9753L847.009 99.353ZM846.71 100.504L848.139 100.959L848.151 100.92L848.161 100.882L846.71 100.504ZM838.995 111.308L839.83 112.554L839.836 112.55L838.995 111.308ZM790.502 118.746L789.083 118.26L788.336 120.444L790.635 120.24L790.502 118.746ZM809.058 64.4924L808.925 62.9983L807.954 63.0845L807.638 64.007L809.058 64.4924ZM879.022 58.2811L880.441 58.7675L881.19 56.5827L878.89 56.787L879.022 58.2811ZM860.395 112.621L860.527 114.115L861.498 114.029L861.814 113.108L860.395 112.621ZM845.732 113.923L844.313 113.437L843.565 115.621L845.865 115.417L845.732 113.923ZM864.36 59.5828L864.227 58.0887L863.257 58.1748L862.941 59.0964L864.36 59.5828ZM830.496 102.425L831.363 103.649L831.371 103.644L831.378 103.638L830.496 102.425ZM833.192 98.4111L834.626 98.8506L834.628 98.8429L833.192 98.4111ZM833.44 97.586L834.876 98.0177L834.876 98.0177L833.44 97.586ZM832.016 92.4115L831.169 93.6492L831.186 93.661L831.204 93.6724L832.016 92.4115ZM813.51 92.9301L813.377 91.436L812.4 91.5228L812.088 92.4533L813.51 92.9301ZM809.319 105.43L807.896 104.953L807.168 107.127L809.451 106.924L809.319 105.43ZM822.3 62.7057L816.244 80.4307L819.083 81.4007L825.139 63.6757L822.3 62.7057ZM817.796 82.4098L830.307 81.2992L830.042 78.3109L817.531 79.4216L817.796 82.4098ZM830.307 81.2992C833.415 81.0233 836.129 81.3626 838.485 82.2671L839.561 79.4664C836.706 78.3705 833.521 78.002 830.042 78.3109L830.307 81.2992ZM838.51 82.2762C840.867 83.1346 842.677 84.4488 844.002 86.2023L846.396 84.3936C844.687 82.1329 842.38 80.493 839.536 79.4573L838.51 82.2762ZM844.019 86.2234C845.401 87.9861 846.202 90.0367 846.413 92.4184L849.402 92.1532C849.142 89.2225 848.137 86.6145 846.379 84.3724L844.019 86.2234ZM846.413 92.4184C846.596 94.4769 846.33 96.6272 845.585 98.8824L848.433 99.8235C849.292 97.2245 849.625 94.6634 849.402 92.1532L846.413 92.4184ZM845.557 98.9753L845.258 100.126L848.161 100.882L848.461 99.7306L845.557 98.9753ZM845.28 100.049C843.861 104.512 841.474 107.816 838.153 110.067L839.836 112.55C843.788 109.872 846.544 105.973 848.139 100.959L845.28 100.049ZM838.159 110.063C834.858 112.277 830.154 113.72 823.918 114.273L824.183 117.262C830.697 116.683 835.956 115.153 839.83 112.554L838.159 110.063ZM823.918 114.273L790.37 117.252L790.635 120.24L824.183 117.262L823.918 114.273ZM791.922 119.231L810.477 64.9778L807.638 64.007L789.083 118.26L791.922 119.231ZM809.19 65.9865L823.853 64.6849L823.587 61.6966L808.925 62.9983L809.19 65.9865ZM877.603 57.7947L858.976 112.135L861.814 113.108L880.441 58.7675L877.603 57.7947ZM860.262 111.127L845.6 112.429L845.865 115.417L860.527 114.115L860.262 111.127ZM847.151 114.409L865.779 60.0692L862.941 59.0964L844.313 113.437L847.151 114.409ZM864.493 61.0769L879.155 59.7752L878.89 56.787L864.227 58.0887L864.493 61.0769ZM825.548 105.495C827.873 105.288 829.859 104.716 831.363 103.649L829.629 101.201C828.715 101.849 827.314 102.326 825.283 102.507L825.548 105.495ZM831.378 103.638C832.945 102.499 834.009 100.863 834.626 98.8506L831.757 97.9717C831.295 99.4814 830.562 100.522 829.613 101.212L831.378 103.638ZM834.628 98.8429L834.876 98.0177L832.003 97.1542L831.755 97.9794L834.628 98.8429ZM834.876 98.0177C835.171 97.0376 835.292 96.0607 835.207 95.1L832.218 95.3653C832.265 95.892 832.204 96.484 832.003 97.1542L834.876 98.0177ZM835.207 95.1C835.058 93.4217 834.244 92.0629 832.829 91.1507L831.204 93.6724C831.833 94.0779 832.15 94.5998 832.218 95.3653L835.207 95.1ZM832.864 91.1739C831.519 90.2529 829.855 89.9732 828.039 90.1343L828.305 93.1226C829.677 93.0007 830.576 93.2431 831.169 93.6492L832.864 91.1739ZM828.039 90.1343L813.377 91.436L813.642 94.4242L828.305 93.1226L828.039 90.1343ZM812.088 92.4533L807.896 104.953L810.741 105.907L814.932 93.407L812.088 92.4533ZM809.451 106.924L825.548 105.495L825.283 102.507L809.186 103.936L809.451 106.924Z" fill="black"/>
<path d="M925.281 77.475L912.98 85.6777C915.243 85.5683 917.092 85.9411 918.528 86.7962C919.963 87.6513 920.749 88.8341 920.884 90.3447C920.951 91.0884 920.847 91.8826 920.571 92.7272L920.438 93.1961C919.757 95.2719 918.517 96.8591 916.718 97.9577C914.943 99.0542 912.486 99.7433 909.349 100.025C907.397 100.2 905.656 100.122 904.127 99.7909C902.619 99.4343 901.421 98.8742 900.532 98.1106C899.667 97.3449 899.186 96.4275 899.09 95.3585C899.032 94.7078 899.105 94.0805 899.308 93.4765L899.419 93.1503L902.138 92.9061L902.062 93.2293C901.897 93.7361 901.833 94.1987 901.87 94.617C901.97 95.7325 902.678 96.5709 903.994 97.1322C905.332 97.6914 907.106 97.8719 909.313 97.6737C911.823 97.4484 913.758 96.9467 915.117 96.1687C916.476 95.3907 917.394 94.2658 917.871 92.7939L918.005 92.3251C918.189 91.7697 918.259 91.2364 918.213 90.7251C918.119 89.6793 917.487 88.9044 916.317 88.4003C915.171 87.8941 913.587 87.7318 911.565 87.9133L908.218 88.2137L909.023 85.8222L920.61 77.8944L904.54 79.3371L905.347 76.9804L926.054 75.1215L925.281 77.475ZM938.426 97.4496C936.474 97.6249 934.724 97.4423 933.176 96.9019C931.652 96.3594 930.43 95.532 929.51 94.4198C928.59 93.3076 928.064 92.0194 927.933 90.5553C927.824 89.3468 927.992 88.0785 928.435 86.7502L929.904 82.3663C930.792 79.733 932.232 77.6358 934.223 76.0748C936.238 74.5117 938.663 73.6029 941.499 73.3484C943.451 73.1731 945.202 73.3673 946.752 73.931C948.323 74.4693 949.568 75.2946 950.488 76.4068C951.408 77.519 951.935 78.8188 952.068 80.3062C952.172 81.4682 952.004 82.7249 951.563 84.0764L950.059 88.4635C949.169 91.0735 947.705 93.1611 945.667 94.7263C943.652 96.2894 941.238 97.1972 938.426 97.4496ZM938.353 95.0666C940.607 94.8643 942.514 94.1777 944.072 93.007C945.651 91.811 946.783 90.1984 947.468 88.169L948.968 83.7471C949.322 82.7314 949.455 81.7355 949.368 80.7594C949.27 79.6672 948.88 78.7182 948.199 77.9126C947.54 77.1049 946.632 76.5071 945.472 76.1192C944.313 75.7313 943.001 75.6031 941.537 75.7345C939.306 75.9348 937.401 76.6329 935.822 77.8289C934.263 78.9996 933.143 80.6113 932.46 82.6639L930.96 87.0857C930.591 88.1965 930.447 89.2051 930.529 90.1114C930.679 91.7847 931.463 93.0848 932.882 94.0116C934.298 94.9153 936.122 95.2669 938.353 95.0666ZM978.821 93.8232C977.008 93.9859 975.377 93.8161 973.926 93.3139C972.475 92.8116 971.317 92.0487 970.452 91.0253C969.587 90.0018 969.093 88.8046 968.97 87.4334C968.87 86.3179 969.026 85.1794 969.437 84.018L969.688 83.2927C970.485 80.9487 971.694 79.1534 973.316 77.9067C974.959 76.6347 977.047 75.885 979.58 75.6576C981.276 75.5053 982.835 75.6465 984.256 76.0811C985.678 76.5158 986.815 77.1867 987.67 78.0939C988.546 78.9758 989.035 79.9862 989.137 81.1249C989.185 81.6594 989.122 82.2625 988.948 82.9341L988.891 83.0798L986.276 83.3145L986.333 83.1688C986.48 82.7105 986.529 82.2141 986.481 81.6796C986.408 80.8662 986.075 80.1582 985.482 79.5554C984.887 78.9295 984.085 78.4744 983.075 78.1902C982.087 77.8806 980.977 77.7812 979.745 77.8917C975.864 78.2402 973.336 80.2241 972.162 83.8436L971.943 84.531C971.65 85.4475 971.54 86.3124 971.613 87.1258C971.749 88.6364 972.463 89.8023 973.755 90.6234C975.047 91.4445 976.703 91.7643 978.725 91.5828C980.422 91.4305 981.831 90.9525 982.954 90.1489C984.075 89.3221 984.831 88.2234 985.223 86.8528L985.277 86.6722L988.031 86.425L987.977 86.6056C987.419 88.7407 986.353 90.4295 984.778 91.672C983.223 92.8891 981.238 93.6062 978.821 93.8232ZM1002.97 73.5579C1004.66 73.4056 1006.21 73.5594 1007.61 74.0194C1009.01 74.4794 1010.13 75.1757 1010.96 76.1082C1011.82 77.0387 1012.3 78.1082 1012.41 79.3166C1012.48 80.0603 1012.38 80.8418 1012.13 81.6612L1011.83 82.6717L994.822 84.1989C994.779 84.5073 994.773 84.8242 994.802 85.1495C994.887 86.1023 995.231 86.9266 995.832 87.6223C996.456 88.3159 997.277 88.8397 998.292 89.1936C999.329 89.5222 1000.5 89.6281 1001.8 89.5113C1005.17 89.2087 1007.37 87.7346 1008.4 85.0888L1011.22 84.8353C1010.45 86.9891 1009.32 88.6251 1007.83 89.743C1006.34 90.861 1004.39 91.5274 1002 91.7423C1000.21 91.9029 998.603 91.7427 997.178 91.2615C995.75 90.7572 994.604 89.9933 993.739 88.9698C992.897 87.9443 992.416 86.7576 992.295 85.4097C992.207 84.4336 992.345 83.3553 992.707 82.1749L992.99 81.4115C993.758 78.9999 994.962 77.1465 996.603 75.8512C998.267 74.5539 1000.39 73.7895 1002.97 73.5579ZM1002.99 75.8046C1001.02 75.9819 999.439 76.522 998.255 77.4248C997.094 78.3255 996.198 79.6945 995.566 81.5317L995.43 81.9656L1009.76 80.6794C1009.81 80.2062 1009.83 79.8767 1009.81 79.6908C1009.73 78.8541 1009.4 78.1228 1008.8 77.4969C1008.21 76.8709 1007.41 76.4042 1006.39 76.0967C1005.38 75.7893 1004.25 75.6919 1002.99 75.8046ZM1022.73 72.1703L1020.06 79.9656L1033.58 78.7514L1036.22 70.9592L1038.87 70.7214L1032.78 88.5926L1030.13 88.8305L1032.8 81.0003L1019.31 82.2114L1016.6 90.0447L1013.95 90.2826L1020.08 72.4082L1022.73 72.1703ZM1040.61 72.7435L1041.36 70.4977L1061.68 68.6731L1060.9 70.9221L1052.29 71.6951L1046.91 87.3237L1044.26 87.5615L1049.64 71.9329L1040.61 72.7435Z" fill="black"/>
<path d="M1176.5 28.833L1187.5 34.833L1176.5 39.833L1187.5 49.833L1183 56.333L1194 69.333L1187.5 79.333L1194 90.833H1187.5" stroke="black"/>
<path d="M1176.5 28.833L1187.5 34.833L1176.5 39.833L1187.5 49.833L1183 56.333L1194 69.333L1187.5 79.333L1194 90.833H1187.5" stroke="black"/>
<path d="M1194 28L1205 34L1194 39L1205 49L1200.5 55.5L1211.5 68.5L1205 78.5L1211.5 90H1205" stroke="black"/>
<path d="M1210 26L1221 32L1210 37L1221 47L1216.5 53.5L1227.5 66.5L1221 76.5L1227.5 88H1221" stroke="black"/>
<path d="M1225 24L1236 30L1225 35L1236 45L1231.5 51.5L1242.5 64.5L1236 74.5L1242.5 86H1236" stroke="black"/>
</svg>
