<svg width="1416" height="1052" viewBox="0 0 1416 1052" fill="none" xmlns="http://www.w3.org/2000/svg">
<path d="M1339 916L1348.09 959.298L1384.26 928.987L1362.79 968.733L1412.23 962.987L1368.41 984L1412.23 1005.01L1362.79 999.267L1384.26 1039.01L1348.09 1008.7L1339 1052L1329.91 1008.7L1293.74 1039.01L1315.21 999.267L1265.77 1005.01L1309.59 984L1265.77 962.987L1315.21 968.733L1293.74 928.987L1329.91 959.298L1339 916Z" fill="#FF79B9"/>
<path d="M108.621 940.606L109.135 943.054L111.052 941.447L141.215 916.171L123.474 949.02L122.105 951.556L124.967 951.223L165.496 946.512L129.763 963.647L126.942 965L129.763 966.353L165.496 983.488L124.967 978.777L122.105 978.444L123.474 980.98L141.215 1013.83L111.052 988.553L109.135 986.946L108.621 989.394L101 1025.7L93.3794 989.394L92.8654 986.946L90.948 988.553L60.7852 1013.83L78.5255 980.98L79.8948 978.444L77.0325 978.777L36.5042 983.488L72.2372 966.353L75.0577 965L72.2372 963.647L36.5042 946.512L77.0325 951.223L79.8948 951.556L78.5255 949.02L60.7852 916.171L90.948 941.447L92.8654 943.054L93.3794 940.606L101 904.302L108.621 940.606Z" fill="#A4FF79" stroke="black" stroke-width="3"/>
<path d="M605 514.598L577.172 644.828H501.279C465.019 644.828 433.818 637.663 407.677 623.333C382.379 609.004 363.828 589.617 352.022 565.172C314.919 598.046 272.756 622.069 225.533 637.241C179.154 652.414 126.028 660 66.1567 660C-17.326 660 -83.1003 644.828 -131.166 614.483C-178.389 584.138 -202 542.835 -202 490.575C-202 475.402 -200.313 461.073 -196.94 447.586C-184.292 395.326 -156.042 356.973 -112.193 332.529C-67.5 308.084 -11.4232 292.49 56.0376 285.747L386.174 252.874C388.704 216.628 374.368 188.812 343.168 169.425C312.81 149.195 267.274 139.08 206.56 139.08C148.375 139.08 101.152 148.353 64.8919 166.897C28.6317 185.441 7.55016 211.149 1.64734 244.023L0.382446 247.816H-153.934L-152.669 244.023C-140.02 169.004 -100.809 109.579 -35.0345 65.7471C31.5831 21.9157 115.487 0 216.679 0C317.027 0 395.872 21.0728 453.213 63.2184C510.555 104.521 539.226 160.153 539.226 230.115C539.226 246.13 537.118 264.674 532.901 285.747L497.484 453.908C495.798 462.337 494.955 468.238 494.955 471.609C494.955 485.096 499.593 495.632 508.868 503.218C518.988 510.805 533.323 514.598 551.875 514.598H605ZM68.6866 529.77C132.774 529.77 189.694 520.077 239.447 500.69C289.199 480.46 327.567 452.222 354.552 415.977L363.406 374.253L56.0376 405.862C21.464 410.077 -4.67711 417.241 -22.3856 427.356C-39.2508 436.628 -49.3699 450.536 -52.7429 469.08C-58.6458 509.54 -18.1693 529.77 68.6866 529.77Z" fill="black"/>
<path d="M605 514.598L577.172 644.828H501.279C465.019 644.828 433.818 637.663 407.677 623.333C382.379 609.004 363.828 589.617 352.022 565.172C314.919 598.046 272.756 622.069 225.533 637.241C179.154 652.414 126.028 660 66.1567 660C-17.326 660 -83.1003 644.828 -131.166 614.483C-178.389 584.138 -202 542.835 -202 490.575C-202 475.402 -200.313 461.073 -196.94 447.586C-184.292 395.326 -156.042 356.973 -112.193 332.529C-67.5 308.084 -11.4232 292.49 56.0376 285.747L386.174 252.874C388.704 216.628 374.368 188.812 343.168 169.425C312.81 149.195 267.274 139.08 206.56 139.08C148.375 139.08 101.152 148.353 64.8919 166.897C28.6317 185.441 7.55016 211.149 1.64734 244.023L0.382446 247.816H-153.934L-152.669 244.023C-140.02 169.004 -100.809 109.579 -35.0345 65.7471C31.5831 21.9157 115.487 0 216.679 0C317.027 0 395.872 21.0728 453.213 63.2184C510.555 104.521 539.226 160.153 539.226 230.115C539.226 246.13 537.118 264.674 532.901 285.747L497.484 453.908C495.798 462.337 494.955 468.238 494.955 471.609C494.955 485.096 499.593 495.632 508.868 503.218C518.988 510.805 533.323 514.598 551.875 514.598H605ZM68.6866 529.77C132.774 529.77 189.694 520.077 239.447 500.69C289.199 480.46 327.567 452.222 354.552 415.977L363.406 374.253L56.0376 405.862C21.464 410.077 -4.67711 417.241 -22.3856 427.356C-39.2508 436.628 -49.3699 450.536 -52.7429 469.08C-58.6458 509.54 -18.1693 529.77 68.6866 529.77Z" stroke="black"/>
<path d="M546.5 372L533.5 432.5L532.5 440.5C532.167 444.494 532.143 448.508 532.429 452.505L532.5 453.5L532.662 454.311C533.22 457.099 534.002 459.838 535 462.5L537.5 467.5L539.334 470.251C540.772 472.409 542.475 474.377 544.402 476.112C545.798 477.368 547.305 478.495 548.904 479.479L549.843 480.057C551.944 481.35 554.151 482.461 556.442 483.377L560.5 485C565.823 486.663 571.283 487.848 576.817 488.54L580.5 489H590.5L625 485" stroke="black" stroke-width="15"/>
</svg>
