<svg width="148" height="136" viewBox="0 0 148 136" fill="none" xmlns="http://www.w3.org/2000/svg">
<path d="M81.6206 43.6057L82.1346 46.0541L84.052 44.4473L114.215 19.1713L96.4745 52.0203L95.1052 54.5557L97.9675 54.223L138.496 49.5123L102.763 66.6475L99.9423 68L102.763 69.3525L138.496 86.4877L97.9675 81.777L95.1052 81.4443L96.4745 83.9797L114.215 116.829L84.052 91.5527L82.1346 89.9459L81.6206 92.3943L74 128.698L66.3794 92.3943L65.8654 89.9459L63.948 91.5527L33.7852 116.829L51.5255 83.9797L52.8948 81.4443L50.0325 81.777L9.50423 86.4877L45.2372 69.3525L48.0577 68L45.2372 66.6475L9.50423 49.5123L50.0325 54.223L52.8948 54.5557L51.5255 52.0203L33.7852 19.1713L63.948 44.4473L65.8654 46.0541L66.3794 43.6057L74 7.30165L81.6206 43.6057Z" fill="#A4FF79" stroke="black" stroke-width="3"/>
</svg>
